Coordinates
version=1
nRows=6
nColumns=60
inDegrees=yes

Units are S.I. units (second, meters, Newtons, ...)
If the header above contains a line with 'inDegrees', this indicates whether rotational values are in degrees (yes) or radians (no).

endheader
time	pelvis_tilt	pelvis_list	pelvis_rotation	pelvis_tx	pelvis_ty	pelvis_tz	hip_flexion_r	hip_adduction_r	hip_rotation_r	knee_angle_r_beta	knee_angle_r	ankle_angle_r	subtalar_angle_r	mtp_angle_r	hip_flexion_l	hip_adduction_l	hip_rotation_l	knee_angle_l_beta	knee_angle_l	ankle_angle_l	subtalar_angle_l	mtp_angle_l	L5_S1_Flex_Ext	L5_S1_Lat_Bending	L5_S1_axial_rotation	L4_L5_Flex_Ext	L4_L5_Lat_Bending	L4_L5_axial_rotation	L3_L4_Flex_Ext	L3_L4_Lat_Bending	L3_L4_axial_rotation	L2_L3_Flex_Ext	L2_L3_Lat_Bending	L2_L3_axial_rotation	L1_L2_Flex_Ext	L1_L2_Lat_Bending	L1_L2_axial_rotation	L1_T12_Flex_Ext	L1_T12_Lat_Bending	L1_T12_axial_rotation	Abs_r3	Abs_r2	Abs_r1	Abs_t1	Abs_t2	arm_flex_r	arm_add_r	arm_rot_r	elbow_flex_r	pro_sup_r	wrist_flex_r	wrist_dev_r	arm_flex_l	arm_add_l	arm_rot_l	elbow_flex_l	pro_sup_l	wrist_flex_l	wrist_dev_l
     62.38000000	     -0.10954558	    -12.93173618	     91.20289646	      0.39801835	      0.84172780	      0.40819783	     49.47467778	     -6.50298165	      1.41269138	      0.77574057	    -44.44666048	     10.34631176	      0.00000000	      0.00000000	     50.01582970	     -5.61526810	     -1.51479967	      0.77042176	    -44.14191554	     10.58452363	      0.00000000	      0.00000000	    -11.25641184	      0.07885642	     -0.04691889	    -20.90428242	      0.10487904	     -0.04985132	    -18.49315901	      0.19173151	     -0.04985132	    -12.86495309	      0.19173151	     -0.04105403	    -10.45270403	      0.16080402	     -0.03812160	     -6.43191372	      0.12214860	     -0.03518917	    -80.40342412	      0.89203964	     -0.26094878	      0.00000000	      0.00000000	     90.53478102	    -15.06718952	     20.23198385	     29.03745110	     70.23058137	     29.15309853	      0.41121124	     93.28014383	    -15.42522459	     42.60685350	     25.75138644	     51.84007802	     28.57748614	    -10.92833095
     62.39000000	     -0.08412364	    -12.96808648	     91.18959264	      0.39795179	      0.84122735	      0.40837506	     49.57585536	     -6.49331102	      1.40568321	      0.77664675	    -44.49858085	     10.34960476	      0.00000000	      0.00000000	     50.12722645	     -5.66907866	     -1.53192299	      0.77178459	    -44.21999983	     10.59416786	      0.00000000	      0.00000000	    -11.27112750	      0.07871095	     -0.05630745	    -20.93161088	      0.10468556	     -0.05982667	    -18.51733537	      0.19137779	     -0.05982667	    -12.88177162	      0.19137779	     -0.04926902	    -10.46636900	      0.16050736	     -0.04574981	     -6.44032225	      0.12192325	     -0.04223059	    -80.50853663	      0.89039395	     -0.31316517	      0.00000000	      0.00000000	     90.41060234	    -15.15839142	     20.02316842	     29.70627072	     69.71943713	     29.15354257	      0.42989430	     93.25557379	    -15.47789221	     42.11513903	     25.92012787	     51.55151401	     28.60191408	    -10.92781131
     62.40000000	     -0.05321008	    -12.92813093	     91.15098574	      0.39796052	      0.84077788	      0.40849496	     49.67526953	     -6.46170993	      1.37937941	      0.78056523	    -44.72309348	     10.32847040	      0.00000000	      0.00000000	     50.27002758	     -5.77138591	     -1.62651516	      0.77731234	    -44.53671637	     10.59586323	      0.00000000	      0.00000000	    -11.29051685	      0.07498050	     -0.05689636	    -20.96761884	      0.09972406	     -0.06045238	    -18.54919013	      0.18230758	     -0.06045238	    -12.90393171	      0.18230758	     -0.04978431	    -10.48437395	      0.15290023	     -0.04622829	     -6.45140133	      0.11614479	     -0.04267227	    -80.64703280	      0.84819438	     -0.31644048	      0.00000000	      0.00000000	     90.18155929	    -15.34525648	     19.89055009	     30.54739909	     69.25328924	     29.16791077	      0.49268344	     93.06721697	    -15.68436430	     41.47070458	     26.52689020	     51.27787839	     28.72859051	    -10.91376108
     62.41000000	     -0.01406401	    -12.91402213	     91.06855352	      0.39800942	      0.84034796	      0.40851920	     49.79168039	     -6.40440570	      1.33990464	      0.78429197	    -44.93661973	     10.30606947	      0.00000000	      0.00000000	     50.42443779	     -5.93218647	     -1.79106538	      0.78297030	    -44.86089358	     10.61836522	      0.00000000	      0.00000000	    -11.29880865	      0.07184446	     -0.04557473	    -20.98301754	      0.09555313	     -0.04842315	    -18.56281273	      0.17468261	     -0.04842315	    -12.91340840	      0.17468261	     -0.03987789	    -10.49207371	      0.14650521	     -0.03702947	     -6.45613926	      0.11128706	     -0.03418105	    -80.70626029	      0.81271885	     -0.25347296	      0.00000000	      0.00000000	     89.90677985	    -15.64563440	     19.94421847	     31.44361375	     69.05376586	     29.18597645	      0.65164671	     92.56995303	    -16.13337279	     40.63541754	     27.90306459	     51.15658897	     29.04074689	    -10.83561240
     62.42000000	      0.10347067	    -13.01383293	     91.11319323	      0.39792633	      0.84005096	      0.40854676	     49.88614983	     -6.32548611	      1.26657695	      0.78398509	    -44.91903670	     10.25696930	      0.00000000	      0.00000000	     50.59567795	     -6.01246912	     -1.72211195	      0.78389013	    -44.91359592	     10.63494814	      0.00000000	      0.00000000	    -11.29102619	      0.08200830	     -0.08410202	    -20.96856475	      0.10907104	     -0.08935839	    -18.55002694	      0.19939499	     -0.08935839	    -12.90451384	      0.19939499	     -0.07358926	    -10.48484692	      0.16723133	     -0.06833289	     -6.45169237	      0.12703086	     -0.06307651	    -80.65067101	      0.92769433	     -0.46775018	      0.00000000	      0.00000000	     89.54434002	    -15.49820007	     19.41240734	     32.48584137	     71.68008174	     28.53980083	      1.44051661	     91.59910537	    -16.63147233	     36.61074568	     29.46851618	     54.99119495	     30.91785022	     -8.25766078
     62.43000000	      0.14573514	    -12.97441024	     91.06628677	      0.39803821	      0.83999326	      0.40852223	     49.87433781	     -6.24105962	      1.29233057	      0.78470090	    -44.96005000	     10.21228315	      0.00000000	      0.00000000	     50.62620008	     -6.12735131	     -1.81621304	      0.78613007	    -45.04193540	     10.61023186	      0.00000000	      0.00000000	    -11.29336433	      0.07574992	     -0.07717575	    -20.97290689	      0.10074739	     -0.08199924	    -18.55386825	      0.18417835	     -0.08199924	    -12.90718609	      0.18417835	     -0.06752878	    -10.48701811	      0.15446923	     -0.06270530	     -6.45302838	      0.11733662	     -0.05788181	    -80.66737205	      0.85689821	     -0.42922838	      0.00000000	      0.00000000	     89.09341077	    -15.69941203	     19.31617849	     33.34918911	     71.11804959	     28.53794603	      1.49052647	     91.20162044	    -16.92613223	     36.03994454	     30.34218812	     54.85112923	     31.03821557	     -8.22930095
